<?xml version="1.0" encoding="UTF-8" standalone="no"?>
<!DOCTYPE svg PUBLIC "-//W3C//DTD SVG 1.1//EN"
 "http://www.w3.org/Graphics/SVG/1.1/DTD/svg11.dtd">
<!-- Generated by graphviz version 2.40.1 (20161225.0304)
 -->
<!-- Title: %3 Pages: 1 -->
<svg width="335pt" height="496pt"
 viewBox="0.00 0.00 334.80 496.03" xmlns="http://www.w3.org/2000/svg" xmlns:xlink="http://www.w3.org/1999/xlink">
<g id="graph0" class="graph" transform="scale(1 1) rotate(0) translate(4 492.0266)">
<title>%3</title>
<polygon fill="#ffffff" stroke="transparent" points="-4,4 -4,-492.0266 330.8,-492.0266 330.8,4 -4,4"/>
<!-- 0 -->
<g id="node1" class="node">
<title>0</title>
<ellipse fill="#000000" stroke="#000000" cx="173" cy="-486.2266" rx="1.8" ry="1.8"/>
</g>
<!-- Init -->
<g id="node2" class="node">
<title>Init</title>
<polygon fill="#38decc" stroke="#000000" points="200,-431.6266 146,-431.6266 146,-395.6266 200,-395.6266 200,-431.6266"/>
<text text-anchor="middle" x="173" y="-410.8266" font-family="Fira Code" font-size="14.00" fill="#000000">Init</text>
</g>
<!-- 0&#45;&gt;Init -->
<g id="edge1" class="edge">
<title>0&#45;&gt;Init</title>
<path fill="none" stroke="#000000" d="M173,-484.1321C173,-477.8556 173,-458.5956 173,-441.7891"/>
<polygon fill="#000000" stroke="#000000" points="176.5001,-441.7798 173,-431.7798 169.5001,-441.7798 176.5001,-441.7798"/>
<text text-anchor="middle" x="194" y="-455.2266" font-family="Fira Code" font-size="14.00" fill="#000000">start</text>
</g>
<!-- GetSession -->
<g id="node5" class="node">
<title>GetSession</title>
<polygon fill="#283593" stroke="#000000" points="223,-342.8265 123,-342.8265 123,-306.8265 223,-306.8265 223,-342.8265"/>
<text text-anchor="middle" x="173" y="-322.0266" font-family="Fira Code" font-size="14.00" fill="#ffffff">GetSession</text>
</g>
<!-- Init&#45;&gt;GetSession -->
<g id="edge2" class="edge">
<title>Init&#45;&gt;GetSession</title>
<path fill="none" stroke="#000000" d="M173,-395.2271C173,-383.1214 173,-367.0342 173,-353.2939"/>
<polygon fill="#000000" stroke="#000000" points="176.5001,-352.8985 173,-342.8986 169.5001,-352.8986 176.5001,-352.8985"/>
<text text-anchor="middle" x="189.8" y="-366.4266" font-family="Fira Code" font-size="14.00" fill="#000000">Load</text>
</g>
<!-- Form -->
<g id="node3" class="node">
<title>Form</title>
<polygon fill="#38decc" stroke="#000000" points="54,-254.0265 0,-254.0265 0,-218.0265 54,-218.0265 54,-254.0265"/>
<text text-anchor="middle" x="27" y="-233.2265" font-family="Fira Code" font-size="14.00" fill="#000000">Form</text>
</g>
<!-- Form&#45;&gt;Form -->
<g id="edge5" class="edge">
<title>Form&#45;&gt;Form</title>
<path fill="none" stroke="#000000" d="M54.2408,-244.2684C64.0239,-244.4457 72,-241.6984 72,-236.0265 72,-232.5702 69.0382,-230.1999 64.5105,-228.9156"/>
<polygon fill="#000000" stroke="#000000" points="64.5639,-225.4004 54.2408,-227.7846 63.7975,-232.3583 64.5639,-225.4004"/>
<text text-anchor="middle" x="181.2" y="-233.2265" font-family="Fira Code" font-size="14.00" fill="#000000">ChangeEmail,ChangePassword</text>
</g>
<!-- Authenticate -->
<g id="node6" class="node">
<title>Authenticate</title>
<polygon fill="#283593" stroke="#000000" points="158.3002,-165.2265 41.6998,-165.2265 41.6998,-129.2265 158.3002,-129.2265 158.3002,-165.2265"/>
<text text-anchor="middle" x="100" y="-144.4265" font-family="Fira Code" font-size="14.00" fill="#ffffff">Authenticate</text>
</g>
<!-- Form&#45;&gt;Authenticate -->
<g id="edge6" class="edge">
<title>Form&#45;&gt;Authenticate</title>
<path fill="none" stroke="#000000" d="M22.6897,-217.5816C21.2102,-206.7793 21.266,-193.3213 27.6,-183.2265 30.3733,-178.8065 33.8678,-174.911 37.8154,-171.481"/>
<polygon fill="#000000" stroke="#000000" points="39.9799,-174.2329 45.8951,-165.4431 35.7895,-168.6256 39.9799,-174.2329"/>
<text text-anchor="middle" x="53.2" y="-188.8265" font-family="Fira Code" font-size="14.00" fill="#000000">Submit</text>
</g>
<!-- Done -->
<g id="node4" class="node">
<title>Done</title>
<ellipse fill="#00c300" stroke="#000000" cx="209" cy="-38.2132" rx="34.4052" ry="34.4052"/>
<ellipse fill="none" stroke="#000000" cx="209" cy="-38.2132" rx="38.4276" ry="38.4276"/>
<text text-anchor="middle" x="209" y="-35.4132" font-family="Fira Code" font-size="14.00" fill="#000000">Done</text>
</g>
<!-- GetSession&#45;&gt;Form -->
<g id="edge4" class="edge">
<title>GetSession&#45;&gt;Form</title>
<path fill="none" stroke="#ff0000" d="M143.1024,-306.6422C119.9204,-292.5425 87.7033,-272.9474 63.0865,-257.975"/>
<polygon fill="#ff0000" stroke="#ff0000" points="64.7545,-254.893 54.3919,-252.6868 61.1169,-260.8736 64.7545,-254.893"/>
<text text-anchor="middle" x="168.6" y="-277.6265" font-family="Fira Code" font-size="14.00" fill="#000000">NotAuthorized</text>
</g>
<!-- GetSession&#45;&gt;Done -->
<g id="edge3" class="edge">
<title>GetSession&#45;&gt;Done</title>
<path fill="none" stroke="#000000" d="M223.192,-310.4681C250.7862,-299.723 282.6526,-281.9636 299,-254.0265 334.2972,-193.705 281.4143,-116.911 242.9917,-73.0821"/>
<polygon fill="#000000" stroke="#000000" points="245.5285,-70.6684 236.2495,-65.5547 240.3143,-75.3388 245.5285,-70.6684"/>
<text text-anchor="middle" x="318.4" y="-188.8265" font-family="Fira Code" font-size="14.00" fill="#000000">OK</text>
</g>
<!-- Authenticate&#45;&gt;Form -->
<g id="edge7" class="edge">
<title>Authenticate&#45;&gt;Form</title>
<path fill="none" stroke="#ff0000" d="M95.124,-165.6858C91.619,-176.4932 86.0719,-189.9515 78,-200.0265 73.6292,-205.4819 68.2234,-210.4736 62.5815,-214.889"/>
<polygon fill="#ff0000" stroke="#ff0000" points="60.2845,-212.2311 54.2398,-220.9324 64.3913,-217.8998 60.2845,-212.2311"/>
<text text-anchor="middle" x="142.6" y="-188.8265" font-family="Fira Code" font-size="14.00" fill="#000000">NotAuthorized</text>
</g>
<!-- Authenticate&#45;&gt;Done -->
<g id="edge8" class="edge">
<title>Authenticate&#45;&gt;Done</title>
<path fill="none" stroke="#000000" d="M117.9991,-129.2251C133.2661,-113.9563 155.6054,-91.6143 174.3292,-72.8882"/>
<polygon fill="#000000" stroke="#000000" points="176.9738,-75.1933 181.5695,-65.6471 172.0238,-70.2439 176.9738,-75.1933"/>
<text text-anchor="middle" x="160.4" y="-100.0265" font-family="Fira Code" font-size="14.00" fill="#000000">OK</text>
</g>
</g>
</svg>
