<?xml version="1.0" encoding="UTF-8" standalone="no"?>
<!DOCTYPE svg PUBLIC "-//W3C//DTD SVG 1.1//EN"
 "http://www.w3.org/Graphics/SVG/1.1/DTD/svg11.dtd">
<!-- Generated by graphviz version 2.40.1 (20161225.0304)
 -->
<!-- Title: %3 Pages: 1 -->
<svg width="558pt" height="545pt"
 viewBox="0.00 0.00 558.37 544.89" xmlns="http://www.w3.org/2000/svg" xmlns:xlink="http://www.w3.org/1999/xlink">
<g id="graph0" class="graph" transform="scale(1 1) rotate(0) translate(4 540.8929)">
<title>%3</title>
<polygon fill="#ffffff" stroke="transparent" points="-4,4 -4,-540.8929 554.3682,-540.8929 554.3682,4 -4,4"/>
<!-- 0 -->
<g id="node1" class="node">
<title>0</title>
<ellipse fill="#000000" stroke="#000000" cx="319.9783" cy="-535.0929" rx="1.8" ry="1.8"/>
</g>
<!-- Stopped -->
<g id="node2" class="node">
<title>Stopped</title>
<ellipse fill="none" stroke="#000000" cx="319.9783" cy="-444.6972" rx="51.6917" ry="51.6917"/>
<text text-anchor="middle" x="319.9783" y="-441.8972" font-family="Fira Code" font-size="14.00" fill="#000000">Stopped</text>
</g>
<!-- 0&#45;&gt;Stopped -->
<g id="edge1" class="edge">
<title>0&#45;&gt;Stopped</title>
<path fill="none" stroke="#000000" d="M319.9783,-533.2049C319.9783,-529.1237 319.9783,-518.8604 319.9783,-506.7056"/>
<polygon fill="#000000" stroke="#000000" points="323.4784,-506.6341 319.9783,-496.6341 316.4784,-506.6342 323.4784,-506.6341"/>
</g>
<!-- Connecting -->
<g id="node3" class="node">
<title>Connecting</title>
<ellipse fill="none" stroke="#000000" cx="68.9783" cy="-259.7348" rx="68.9565" ry="68.9565"/>
<text text-anchor="middle" x="68.9783" y="-256.9348" font-family="Fira Code" font-size="14.00" fill="#000000">Connecting</text>
</g>
<!-- Stopped&#45;&gt;Connecting -->
<g id="edge4" class="edge">
<title>Stopped&#45;&gt;Connecting</title>
<path fill="none" stroke="#000000" d="M278.249,-413.9468C238.6661,-384.7781 178.622,-340.5315 132.9866,-306.9027"/>
<polygon fill="#000000" stroke="#000000" points="135.0566,-304.0804 124.9299,-300.9657 130.904,-309.7157 135.0566,-304.0804"/>
<text text-anchor="middle" x="245.9783" y="-363.9015" font-family="Fira Code" font-size="14.00" fill="#000000">Start</text>
</g>
<!-- Disconnected -->
<g id="node4" class="node">
<title>Disconnected</title>
<ellipse fill="none" stroke="#000000" cx="319.9783" cy="-259.7348" rx="80.6333" ry="80.6333"/>
<text text-anchor="middle" x="319.9783" y="-256.9348" font-family="Fira Code" font-size="14.00" fill="#000000">Disconnected</text>
</g>
<!-- Connecting&#45;&gt;Disconnected -->
<!-- Connecting&#45;&gt;Disconnected -->
<g id="edge6" class="edge">
<title>Connecting&#45;&gt;Disconnected</title>
<path fill="none" stroke="#000000" d="M138.2295,-259.7348C166.3893,-259.7348 199.3128,-259.7348 229.3434,-259.7348"/>
<polygon fill="#000000" stroke="#000000" points="229.4058,-263.2349 239.4057,-259.7348 229.4057,-256.2349 229.4058,-263.2349"/>
<text text-anchor="middle" x="188.6841" y="-268.3349" font-family="Fira Code" font-size="14.00" fill="#000000">ConnClosed</text>
</g>
<!-- Connected -->
<g id="node6" class="node">
<title>Connected</title>
<ellipse fill="none" stroke="#000000" cx="319.9783" cy="-63.1841" rx="63.3687" ry="63.3687"/>
<text text-anchor="middle" x="319.9783" y="-60.3841" font-family="Fira Code" font-size="14.00" fill="#000000">Connected</text>
</g>
<!-- Connecting&#45;&gt;Connected -->
<g id="edge5" class="edge">
<title>Connecting&#45;&gt;Connected</title>
<path fill="none" stroke="#000000" d="M123.4415,-217.0862C164.3481,-185.0535 220.2682,-141.2641 262.0021,-108.5835"/>
<polygon fill="#000000" stroke="#000000" points="264.1712,-111.3304 269.8867,-102.4093 259.8555,-105.8191 264.1712,-111.3304"/>
<text text-anchor="middle" x="243.5783" y="-149.9682" font-family="Fira Code" font-size="14.00" fill="#000000">ConnOpen</text>
</g>
<!-- Disconnected&#45;&gt;Stopped -->
<g id="edge11" class="edge">
<title>Disconnected&#45;&gt;Stopped</title>
<path fill="none" stroke="#000000" d="M319.9783,-340.3996C319.9783,-354.5254 319.9783,-369.0251 319.9783,-382.5512"/>
<polygon fill="#000000" stroke="#000000" points="316.4784,-382.6826 319.9783,-392.6826 323.4784,-382.6827 316.4784,-382.6826"/>
<text text-anchor="middle" x="336.7783" y="-363.9015" font-family="Fira Code" font-size="14.00" fill="#000000">Stop</text>
</g>
<!-- Disconnected&#45;&gt;Connecting -->
<g id="edge10" class="edge">
<title>Disconnected&#45;&gt;Connecting</title>
<path fill="none" stroke="#000000" d="M241.0391,-242.5644C217.4749,-239.3066 191.5629,-237.5634 167.6841,-239.9348 160.8481,-240.6137 153.7845,-241.5508 146.7243,-242.6509"/>
<polygon fill="#000000" stroke="#000000" points="145.6989,-239.2734 136.4096,-244.3682 146.8486,-246.1783 145.6989,-239.2734"/>
<text text-anchor="middle" x="188.6841" y="-245.5348" font-family="Fira Code" font-size="14.00" fill="#000000">Retry</text>
</g>
<!-- Stopping -->
<g id="node5" class="node">
<title>Stopping</title>
<ellipse fill="none" stroke="#000000" cx="492.9783" cy="-259.7348" rx="57.28" ry="57.28"/>
<text text-anchor="middle" x="492.9783" y="-256.9348" font-family="Fira Code" font-size="14.00" fill="#000000">Stopping</text>
</g>
<!-- Disconnected&#45;&gt;Stopping -->
<!-- Stopping&#45;&gt;Stopped -->
<g id="edge12" class="edge">
<title>Stopping&#45;&gt;Stopped</title>
<path fill="none" stroke="#000000" d="M453.6771,-301.7535C426.4319,-330.8827 390.1824,-369.6387 362.3022,-399.4467"/>
<polygon fill="#000000" stroke="#000000" points="359.6797,-397.1268 355.4049,-406.821 364.792,-401.9085 359.6797,-397.1268"/>
<text text-anchor="middle" x="437.9783" y="-363.9015" font-family="Fira Code" font-size="14.00" fill="#000000">ConnClosed</text>
</g>
<!-- Connected&#45;&gt;Disconnected -->
<g id="edge8" class="edge">
<title>Connected&#45;&gt;Disconnected</title>
<path fill="none" stroke="#000000" d="M319.9783,-126.5485C319.9783,-139.9774 319.9783,-154.4058 319.9783,-168.6327"/>
<polygon fill="#000000" stroke="#000000" points="316.4784,-168.9392 319.9783,-178.9392 323.4784,-168.9393 316.4784,-168.9392"/>
<text text-anchor="middle" x="361.9783" y="-149.9682" font-family="Fira Code" font-size="14.00" fill="#000000">ConnClosed</text>
</g>
<!-- Connected&#45;&gt;Stopping -->
<g id="edge7" class="edge">
<title>Connected&#45;&gt;Stopping</title>
<path fill="none" stroke="#000000" d="M368.1661,-104.5788C381.5638,-116.8902 395.7756,-130.7416 407.9783,-144.3682 424.4607,-162.774 440.947,-184.2614 454.9536,-203.6695"/>
<polygon fill="#000000" stroke="#000000" points="452.1349,-205.7449 460.7974,-211.845 457.8296,-201.6743 452.1349,-205.7449"/>
<text text-anchor="middle" x="436.7783" y="-149.9682" font-family="Fira Code" font-size="14.00" fill="#000000">Stop</text>
</g>
<!-- Connected&#45;&gt;Connected -->
<g id="edge9" class="edge">
<title>Connected&#45;&gt;Connected</title>
<path fill="none" stroke="#000000" d="M381.2259,-78.8945C392.9039,-77.0147 401.1623,-71.7778 401.1623,-63.1841 401.1623,-57.2759 397.2589,-52.9544 391.0245,-50.2195"/>
<polygon fill="#000000" stroke="#000000" points="391.7994,-46.8019 381.2259,-47.4736 389.9105,-53.5422 391.7994,-46.8019"/>
<text text-anchor="middle" x="430.5623" y="-60.3841" font-family="Fira Code" font-size="14.00" fill="#000000">Message</text>
</g>
</g>
</svg>
